<svg version="1.1" xmlns="http://www.w3.org/2000/svg" xmlns:xlink="http://www.w3.org/1999/xlink" width="48px" height="48px" viewBox="0,0,256,256"><g fill="none" fill-rule="nonzero" stroke="none" stroke-width="1" stroke-linecap="butt" stroke-linejoin="miter" stroke-miterlimit="10" stroke-dasharray="" stroke-dashoffset="0" font-family="none" font-weight="none" font-size="none" text-anchor="none" style="mix-blend-mode: normal"><g transform="scale(5.33333,5.33333)"><path d="M24,19c-2.76142,0 -5,2.23858 -5,5c0,2.76142 2.23858,5 5,5c2.76142,0 5,-2.23858 5,-5c0,-2.76142 -2.23858,-5 -5,-5z" fill="#455a64"></path><path d="M44.122,21.753l-3.373,-0.562c-0.181,-1.084 -0.463,-2.131 -0.838,-3.135l2.639,-2.173c0.397,-0.326 0.498,-0.89 0.241,-1.336l-1.21,-2.096c-0.256,-0.445 -0.798,-0.638 -1.277,-0.458l-3.186,1.193c-0.693,-0.84 -1.466,-1.612 -2.306,-2.306l1.193,-3.184c0.181,-0.481 -0.015,-1.021 -0.458,-1.277l-2.096,-1.21c-0.445,-0.256 -1.01,-0.153 -1.336,0.241l-2.17,2.64c-1.005,-0.376 -2.052,-0.658 -3.136,-0.839l-0.562,-3.373c-0.086,-0.506 -0.523,-0.878 -1.037,-0.878h-2.421c-0.512,0 -0.951,0.372 -1.035,0.878l-0.562,3.373c-1.084,0.181 -2.131,0.463 -3.135,0.838l-2.173,-2.639c-0.326,-0.397 -0.89,-0.5 -1.336,-0.242l-2.096,1.21c-0.445,0.256 -0.638,0.798 -0.458,1.277l1.193,3.186c-0.84,0.693 -1.613,1.466 -2.306,2.306l-3.186,-1.193c-0.479,-0.181 -1.021,0.013 -1.277,0.458l-1.21,2.096c-0.258,0.445 -0.155,1.01 0.241,1.336l2.639,2.173c-0.375,1.004 -0.658,2.051 -0.838,3.135l-3.373,0.562c-0.505,0.085 -0.877,0.522 -0.877,1.036v2.421c0,0.512 0.372,0.951 0.878,1.035l3.373,0.562c0.181,1.084 0.463,2.131 0.838,3.135l-2.639,2.173c-0.397,0.326 -0.498,0.89 -0.241,1.336l1.21,2.096c0.256,0.445 0.798,0.638 1.277,0.458l3.186,-1.193c0.693,0.84 1.466,1.612 2.306,2.306l-1.193,3.184c-0.181,0.481 0.015,1.021 0.458,1.277l2.096,1.21c0.445,0.256 1.01,0.153 1.336,-0.242l2.171,-2.637c1.005,0.376 2.052,0.658 3.136,0.839l0.562,3.373c0.085,0.505 0.522,0.877 1.036,0.877h2.421c0.512,0 0.951,-0.372 1.035,-0.878l0.562,-3.373c1.084,-0.181 2.131,-0.463 3.135,-0.838l2.173,2.639c0.326,0.397 0.89,0.498 1.336,0.242l2.096,-1.21c0.445,-0.256 0.638,-0.798 0.458,-1.277l-1.193,-3.186c0.84,-0.693 1.612,-1.466 2.306,-2.306l3.184,1.193c0.481,0.181 1.021,-0.015 1.277,-0.458l1.21,-2.096c0.256,-0.445 0.153,-1.01 -0.242,-1.336l-2.637,-2.171c0.376,-1.005 0.658,-2.052 0.839,-3.136l3.373,-0.562c0.505,-0.086 0.877,-0.523 0.877,-1.037v-2.421c0,-0.513 -0.372,-0.952 -0.878,-1.036zM24,36c-6.6,0 -12,-5.4 -12,-12c0,-6.6 5.4,-12 12,-12c6.6,0 12,5.4 12,12c0,6.6 -5.4,12 -12,12z" fill="#607d8b"></path><path d="M24,13c6.065,0 11,4.935 11,11c0,6.065 -4.935,11 -11,11c-6.065,0 -11,-4.935 -11,-11c0,-6.065 4.935,-11 11,-11M24,11c-7.15,0 -13,5.85 -13,13c0,7.15 5.85,13 13,13c7.15,0 13,-5.85 13,-13c0,-7.15 -5.85,-13 -13,-13z" fill="#455a64"></path><path d="M26,22.852v-10.67c-0.15,-0.026 -0.301,-0.05 -0.453,-0.07c-0.145,-0.019 -0.288,-0.042 -0.435,-0.055c-0.367,-0.034 -0.737,-0.057 -1.112,-0.057c-0.375,0 -0.745,0.023 -1.112,0.057c-0.146,0.014 -0.29,0.036 -0.435,0.055c-0.152,0.02 -0.303,0.044 -0.453,0.07v10.658l-9.23,5.338c0.475,1.266 1.146,2.438 1.996,3.462l9.229,-5.331l9.239,5.331c0.85,-1.024 1.521,-2.196 1.996,-3.462z" fill="#455a64"></path></g></g></svg>